<mxfile host="app.diagrams.net" modified="2024-07-11T03:10:37.207Z" agent="Mozilla/5.0 (Windows NT 10.0; Win64; x64) AppleWebKit/537.36 (KHTML, like Gecko) Chrome/126.0.0.0 Safari/537.36" version="24.6.4" etag="g1RtWH4zQgSUnAakmxqn" type="github">
  <diagram name="페이지-1" id="IMCso-vicc_eL_hNvSaG">
    <mxGraphModel>
      <root>
        <mxCell id="0" />
        <mxCell id="1" parent="0" />
      </root>
    </mxGraphModel>
  </diagram>
</mxfile>
